<?xml version="1.0" encoding="iso-8859-1"?>
<!-- Generator: Adobe Illustrator 16.0.0, SVG Export Plug-In . SVG Version: 6.00 Build 0)  -->
<!DOCTYPE svg PUBLIC "-//W3C//DTD SVG 1.1//EN" "http://www.w3.org/Graphics/SVG/1.1/DTD/svg11.dtd">
<svg version="1.1" id="&#x5716;&#x5C64;_1" xmlns="http://www.w3.org/2000/svg" xmlns:xlink="http://www.w3.org/1999/xlink" x="0px"
	 y="0px" width="10.149px" height="20.2px" viewBox="0 0 10.149 20.2" style="enable-background:new 0 0 10.149 20.2;"
	 xml:space="preserve">
<path style="fill:#626262;" d="M3.099,0H1.767C0.793,0.001,0.001,0.793,0,1.765v3.248c0.001,0.774,0.185,1.55,0.53,2.243
	c0.305,0.611,0.456,1.295,0.436,1.977l-0.267,9.174c-0.032,0.955,0.717,1.76,1.671,1.792c0.021,0,0.042,0.001,0.063,0.001
	c0.439,0,0.856-0.164,1.18-0.465c0.338-0.315,0.533-0.744,0.55-1.206c0.001-0.041,0.001-0.082,0-0.121L3.896,9.234
	c-0.02-0.683,0.132-1.366,0.437-1.976c0.347-0.693,0.53-1.469,0.532-2.245V1.765C4.862,0.793,4.07,0.001,3.099,0 M2.199,4.863V0.866
	h0.466v3.997h0.866V0.981c0.282,0.156,0.465,0.455,0.466,0.784v3.248C3.996,5.653,3.845,6.295,3.56,6.869
	C3.191,7.606,3.009,8.432,3.031,9.258l0.267,9.172c0.008,0.231-0.082,0.461-0.244,0.626c-0.342,0.334-0.899,0.335-1.242,0.001
	c-0.162-0.166-0.252-0.395-0.245-0.625l0.266-9.174c0.024-0.825-0.159-1.651-0.526-2.389C1.019,6.296,0.867,5.654,0.866,5.013V1.766
	c0.002-0.33,0.184-0.629,0.466-0.784v3.881H2.199z"/>
<path style="fill:#626262;" d="M9.86,10.086V0.433C9.86,0.194,9.665,0,9.427,0H9.418C8.229,0,7.179,0.713,6.74,1.819
	C5.812,4.141,5.765,6.718,6.606,9.074l0.387,1.086l-0.284,8.245c-0.032,0.947,0.712,1.746,1.659,1.78
	c0.021,0,0.041,0.001,0.061,0.001c0.922,0,1.687-0.732,1.72-1.66c0.001-0.04,0.001-0.081,0-0.121L9.86,10.086z M9.042,19.057
	c-0.34,0.334-0.891,0.333-1.229,0.001c-0.16-0.166-0.247-0.394-0.238-0.624l0.271-7.909h1.162l0.272,7.91
	C9.289,18.664,9.202,18.891,9.042,19.057 M8.993,0.912v8.747H7.731L7.419,8.783C6.648,6.626,6.693,4.267,7.544,2.141V2.14
	C7.792,1.516,8.341,1.054,8.993,0.912"/>
</svg>
