<?xml version="1.0" encoding="iso-8859-1"?>
<!-- Generator: Adobe Illustrator 16.0.0, SVG Export Plug-In . SVG Version: 6.00 Build 0)  -->
<!DOCTYPE svg PUBLIC "-//W3C//DTD SVG 1.1//EN" "http://www.w3.org/Graphics/SVG/1.1/DTD/svg11.dtd">
<svg version="1.1" id="&#x5716;&#x5C64;_1" xmlns="http://www.w3.org/2000/svg" xmlns:xlink="http://www.w3.org/1999/xlink" x="0px"
	 y="0px" width="20px" height="20px" viewBox="0 0 20 20" style="enable-background:new 0 0 20 20;" xml:space="preserve">
<path style="fill:#626262;" d="M17.922,7.874c0.532,0,1.063-0.193,1.474-0.604C19.806,6.859,20,6.328,20,5.796
	c0-0.531-0.194-1.062-0.604-1.473l-3.72-3.72l-0.024-0.024C15.242,0.192,14.71,0,14.203,0c-0.531,0-1.062,0.192-1.473,0.603
	c-0.411,0.411-0.604,0.942-0.604,1.474c0,0.41,0.145,0.797,0.387,1.135L9.033,6.714L8.671,6.352c-0.193-0.193-0.531-0.193-0.725,0
	L6.812,7.487C6.498,7.801,6.329,8.236,6.304,8.646c-0.266-0.072-0.556-0.12-0.821-0.12c-0.797,0-1.57,0.29-2.174,0.893L1.039,11.69
	c-0.193,0.193-0.193,0.532,0,0.725l6.57,6.57c0.193,0.192,0.532,0.192,0.725,0l2.271-2.271c0.603-0.604,0.893-1.376,0.893-2.173
	c0-0.291-0.048-0.556-0.12-0.822c0.41-0.024,0.845-0.193,1.159-0.507l1.135-1.135c0.193-0.194,0.193-0.532,0-0.725l-0.386-0.387
	l3.502-3.478C17.125,7.705,17.512,7.874,17.922,7.874 M5.459,9.492c0.531,0,1.062,0.217,1.449,0.604l2.971,2.971
	c0.41,0.411,0.604,0.918,0.604,1.449c0,0.532-0.218,1.063-0.604,1.449l-1.884,1.886l-5.846-5.846l1.884-1.884
	C4.42,9.709,4.951,9.516,5.459,9.492 M8.26,7.391l0.387,0.386l3.526,3.527l0.387,0.386l-0.773,0.773
	c-0.145,0.145-0.338,0.218-0.532,0.218c-0.193,0-0.386-0.073-0.531-0.218l-0.12-0.121L7.656,9.371L7.537,9.25
	C7.392,9.105,7.318,8.913,7.318,8.719c0-0.193,0.073-0.386,0.218-0.531L8.26,7.391z M9.758,7.439l3.43-3.43l1.401,1.401l1.4,1.401
	l-3.429,3.43L9.758,7.439z M18.671,6.521c-0.217,0.217-0.482,0.314-0.749,0.314s-0.53-0.097-0.726-0.29l-0.023-0.024l-3.744-3.696
	c-0.217-0.217-0.314-0.483-0.314-0.748c0-0.266,0.121-0.556,0.314-0.749c0.218-0.218,0.484-0.314,0.749-0.314
	c0.266,0,0.532,0.096,0.726,0.29l0.023,0.024l3.721,3.72c0.217,0.217,0.313,0.483,0.313,0.748
	C18.961,6.062,18.865,6.328,18.671,6.521"/>
<path style="fill:#626262;" d="M0.99,14.082c-0.36,0-0.652,0.292-0.652,0.652s0.292,0.652,0.652,0.652s0.652-0.292,0.652-0.652
	S1.35,14.082,0.99,14.082"/>
<path style="fill:#626262;" d="M3.14,16.207c-0.36,0-0.652,0.292-0.652,0.652s0.292,0.652,0.652,0.652s0.652-0.292,0.652-0.652
	S3.5,16.207,3.14,16.207"/>
<path style="fill:#626262;" d="M5.266,18.357c-0.36,0-0.652,0.292-0.652,0.651c0,0.36,0.292,0.652,0.652,0.652
	s0.652-0.292,0.652-0.652C5.917,18.649,5.625,18.357,5.266,18.357"/>
<path style="fill:#626262;" d="M0.652,18.695C0.292,18.695,0,18.987,0,19.347C0,19.708,0.292,20,0.652,20s0.652-0.292,0.652-0.653
	C1.304,18.987,1.012,18.695,0.652,18.695"/>
<path style="fill:#626262;" d="M0.797,16.4c-0.36,0-0.652,0.292-0.652,0.652c0,0.359,0.292,0.651,0.652,0.651
	s0.652-0.292,0.652-0.651C1.449,16.692,1.157,16.4,0.797,16.4"/>
<path style="fill:#626262;" d="M2.947,18.551c-0.36,0-0.652,0.292-0.652,0.651c0,0.36,0.292,0.652,0.652,0.652
	s0.652-0.292,0.652-0.652C3.599,18.843,3.307,18.551,2.947,18.551"/>
</svg>
