<?xml version="1.0" encoding="iso-8859-1"?>
<!-- Generator: Adobe Illustrator 16.0.0, SVG Export Plug-In . SVG Version: 6.00 Build 0)  -->
<!DOCTYPE svg PUBLIC "-//W3C//DTD SVG 1.1//EN" "http://www.w3.org/Graphics/SVG/1.1/DTD/svg11.dtd">
<svg version="1.1" id="&#x5716;&#x5C64;_1" xmlns="http://www.w3.org/2000/svg" xmlns:xlink="http://www.w3.org/1999/xlink" x="0px"
	 y="0px" width="17.876px" height="20.429px" viewBox="0 0 17.876 20.429" style="enable-background:new 0 0 17.876 20.429;"
	 xml:space="preserve">
<path style="fill:#626262;" d="M17.876,18.305V0.425C17.876,0.19,17.685,0,17.451,0H1.703C0.763,0,0,0.762,0,1.702v0.001v17.449
	c0,0.705,0.573,1.277,1.277,1.277h16.174c0.234,0,0.426-0.191,0.426-0.426c0-0.235-0.191-0.427-0.426-0.427v-0.846
	C17.685,18.731,17.876,18.541,17.876,18.305 M0.852,1.702c0-0.469,0.382-0.851,0.851-0.851h15.322V17.88H1.277v-0.005
	c-0.034,0-0.069,0.001-0.103,0.005H0.852v-0.421V1.702z M0.852,19.152c0-0.215,0.16-0.393,0.367-0.421h15.323
	c-0.209,0.028-0.368,0.205-0.368,0.421c0,0.235,0.19,0.425,0.425,0.425H1.277C1.043,19.577,0.852,19.386,0.852,19.152"/>
<path style="fill:#626262;" d="M5.113,10.296v4.6h7.662v-4.6c1.125-0.469,1.916-1.579,1.916-2.874c0-1.72-1.394-3.114-3.112-3.114
	c-0.294,0-0.578,0.041-0.847,0.118c-0.498-0.374-1.117-0.596-1.787-0.596c-0.671,0-1.29,0.222-1.788,0.596
	C6.888,4.35,6.604,4.309,6.31,4.309c-1.719,0-3.113,1.394-3.113,3.114C3.197,8.717,3.988,9.828,5.113,10.296 M11.923,14.044
	c0-0.235-0.191-0.425-0.426-0.425s-0.426,0.19-0.426,0.425h-0.426c0-0.235-0.19-0.425-0.424-0.425c-0.236,0-0.428,0.19-0.428,0.425
	H9.37c0-0.235-0.191-0.425-0.425-0.425c-0.236,0-0.427,0.19-0.427,0.425H8.093c0-0.235-0.191-0.425-0.425-0.425
	c-0.235,0-0.426,0.19-0.426,0.425H6.815c0-0.235-0.191-0.425-0.425-0.425c-0.235,0-0.426,0.19-0.426,0.425V13.62h0.426h1.277h1.277
	h1.277h1.275h0.428v0.425H11.923z M6.31,5.161c0.05,0,0.1,0.002,0.15,0.005c-0.301,0.453-0.48,0.992-0.494,1.573
	C5.961,6.761,5.959,6.786,5.959,6.81c0,0.235,0.191,0.426,0.425,0.426c0.236,0,0.426-0.191,0.426-0.426h0.005
	c0-1.173,0.955-2.128,2.129-2.128c1.154,0,2.096,0.924,2.126,2.072c-0.003,0.018-0.005,0.037-0.005,0.056
	c0,0.235,0.191,0.426,0.426,0.426c0.236,0,0.426-0.191,0.426-0.426h0.006c0-0.607-0.182-1.173-0.494-1.644
	c0.049-0.004,0.098-0.005,0.149-0.005c1.247,0,2.261,1.015,2.261,2.262c0,0.455-0.134,0.893-0.389,1.268
	c-0.248,0.366-0.596,0.65-1.003,0.82l-0.522,0.218v0.568v2.471H5.964v-2.471V9.729L5.44,9.51C4.595,9.158,4.047,8.338,4.047,7.422
	C4.047,6.175,5.063,5.161,6.31,5.161"/>
<path style="fill:#626262;" d="M7.257,11.281c0,0.186,0.152,0.338,0.338,0.338c0.187,0,0.338-0.152,0.338-0.338V9.59
	c0-0.187-0.151-0.339-0.338-0.339c-0.186,0-0.338,0.152-0.338,0.339V11.281z"/>
<path style="fill:#626262;" d="M8.61,11.281c0,0.186,0.151,0.338,0.338,0.338s0.338-0.152,0.338-0.338V9.59
	c0-0.187-0.151-0.339-0.338-0.339S8.61,9.403,8.61,9.59V11.281z"/>
<path style="fill:#626262;" d="M9.962,11.281c0,0.186,0.15,0.338,0.338,0.338c0.187,0,0.338-0.152,0.338-0.338V9.59
	c0-0.187-0.151-0.339-0.338-0.339c-0.188,0-0.338,0.152-0.338,0.339V11.281z"/>
</svg>
