<?xml version="1.0" encoding="iso-8859-1"?>
<!-- Generator: Adobe Illustrator 16.0.0, SVG Export Plug-In . SVG Version: 6.00 Build 0)  -->
<!DOCTYPE svg PUBLIC "-//W3C//DTD SVG 1.1//EN" "http://www.w3.org/Graphics/SVG/1.1/DTD/svg11.dtd">
<svg version="1.1" id="&#x5716;&#x5C64;_1" xmlns="http://www.w3.org/2000/svg" xmlns:xlink="http://www.w3.org/1999/xlink" x="0px"
	 y="0px" width="20px" height="20px" viewBox="0 0 20 20" style="enable-background:new 0 0 20 20;" xml:space="preserve">
<path style="fill:#626262;" d="M5.455,9.546c0-0.251-0.203-0.455-0.455-0.455c-0.251,0-0.454,0.204-0.454,0.455
	c0,1.194,1.316,2.833,1.467,3.016c0.089,0.109,0.22,0.166,0.352,0.166c0.101,0,0.203-0.034,0.288-0.103
	c0.194-0.16,0.221-0.446,0.063-0.64C6.228,11.391,5.455,10.204,5.455,9.546"/>
<path style="fill:#626262;" d="M15,9.091c-0.251,0-0.455,0.204-0.455,0.455c0,0.655-0.773,1.843-1.26,2.439
	c-0.159,0.194-0.131,0.48,0.063,0.64c0.085,0.069,0.187,0.102,0.288,0.102c0.132,0,0.262-0.056,0.352-0.166
	c0.15-0.183,1.467-1.822,1.467-3.015C15.455,9.295,15.251,9.091,15,9.091"/>
<path style="fill:#626262;" d="M10,9.091c-0.251,0-0.455,0.204-0.455,0.455v2.727c0,0.251,0.204,0.454,0.455,0.454
	s0.455-0.203,0.455-0.454V9.546C10.455,9.295,10.251,9.091,10,9.091"/>
<path style="fill:#626262;" d="M15,1.819c-0.275,0-0.563,0.036-0.862,0.092C13.137,0.744,11.655,0,10,0S6.863,0.744,5.862,1.911
	C5.563,1.855,5.275,1.819,5,1.819c-2.757,0-5,2.242-5,5c0,1.889,1.065,3.606,2.738,4.455l-0.009,6.869
	c-0.001,0.497,0.192,0.962,0.542,1.313C3.622,19.808,4.088,20,4.583,20h10.835c1.023,0,1.855-0.832,1.855-1.854v-6.878
	C18.939,10.416,20,8.702,20,6.819C20,4.061,17.757,1.819,15,1.819 M15.418,19.091H4.583c-0.252,0-0.489-0.098-0.668-0.277
	c-0.179-0.179-0.277-0.417-0.277-0.67l0.003-1.78h12.722v1.782C16.363,18.667,15.939,19.091,15.418,19.091 M16.645,10.56
	c-0.023,0.01-0.045,0.021-0.067,0.035c-0.058,0.036-0.104,0.083-0.14,0.137c-0.035,0.054-0.06,0.116-0.068,0.182
	c-0.004,0.026-0.006,0.051-0.006,0.077v4.464H3.642l0.005-4.458c0.001-0.025-0.001-0.05-0.004-0.075
	c-0.01-0.069-0.035-0.133-0.072-0.188c-0.034-0.052-0.08-0.097-0.135-0.132c-0.022-0.014-0.046-0.026-0.071-0.037
	C1.873,9.913,0.909,8.444,0.909,6.819c0-2.256,1.835-4.092,4.091-4.092c0.088,0,0.181,0.011,0.272,0.019
	c-0.46,0.799-0.727,1.722-0.727,2.709C4.545,5.706,4.749,5.91,5,5.91s0.455-0.204,0.455-0.455C5.455,2.949,7.494,0.91,10,0.91
	s4.545,2.039,4.545,4.545c0,0.251,0.204,0.455,0.455,0.455s0.455-0.204,0.455-0.455c0-0.987-0.268-1.91-0.727-2.709
	c0.09-0.008,0.184-0.019,0.271-0.019c2.256,0,4.091,1.836,4.091,4.092C19.091,8.438,18.131,9.905,16.645,10.56"/>
</svg>
