<?xml version="1.0" encoding="iso-8859-1"?>
<!-- Generator: Adobe Illustrator 16.0.0, SVG Export Plug-In . SVG Version: 6.00 Build 0)  -->
<!DOCTYPE svg PUBLIC "-//W3C//DTD SVG 1.1//EN" "http://www.w3.org/Graphics/SVG/1.1/DTD/svg11.dtd">
<svg version="1.1" id="&#x5716;&#x5C64;_1" xmlns="http://www.w3.org/2000/svg" xmlns:xlink="http://www.w3.org/1999/xlink" x="0px"
	 y="0px" width="19.407px" height="18.983px" viewBox="0 0 19.407 18.983" style="enable-background:new 0 0 19.407 18.983;"
	 xml:space="preserve">
<path style="fill:#626262;" d="M18.793,11.555c-0.119-4.35-3.297-7.942-7.459-8.7c0.168-0.287,0.269-0.612,0.269-0.954
	C11.603,0.853,10.75,0,9.704,0C8.655,0,7.802,0.853,7.802,1.901c0,0.342,0.101,0.667,0.271,0.954c-4.164,0.758-7.342,4.35-7.459,8.7
	C0.253,11.75,0,12.118,0,12.554c0,0.635,0.516,1.151,1.15,1.151h3.327c-0.132,0.026-0.264,0.063-0.386,0.137
	c-0.274,0.165-0.469,0.427-0.547,0.737c-0.076,0.306-0.028,0.623,0.131,0.895l-0.743-0.392c-0.551-0.292-1.237-0.11-1.573,0.41
	l-0.097,0.177l0.009,0.004c-0.199,0.553,0.036,1.182,0.564,1.466l1.95,1.049l3.478,0.467c0.218,0.105,0.847,0.328,2.254,0.328
	c1.239,0,2.8-0.177,4.619-0.512c0.032,0.188,0.188,0.336,0.388,0.336h2.698c0.222,0,0.399-0.181,0.399-0.401v-4.201
	c0-0.221-0.178-0.4-0.399-0.4h-2.698c-0.221,0-0.4,0.179-0.4,0.4v0.557l-2.7-0.006c-0.606-0.333-1.373-0.724-2.14-1.051h8.973
	c0.634,0,1.15-0.516,1.15-1.151C19.407,12.117,19.153,11.75,18.793,11.555 M4.321,14.773c0.024-0.103,0.09-0.19,0.183-0.245
	c0.092-0.055,0.198-0.071,0.302-0.045s0.191,0.091,0.246,0.182l0.633,1.053l-0.923,0.017l-0.396-0.659
	C4.31,14.984,4.294,14.876,4.321,14.773 M2.028,15.93c0.112-0.178,0.346-0.238,0.53-0.142l1.438,0.761l3.289-0.06l1.642-1.034
	l-0.651-0.313c-0.707-0.342-1.515-0.923-1.587-1.242c-0.007-0.029-0.005-0.041,0.013-0.065c0.14-0.089,1.545,0.08,4.426,1.67
	l0.09,0.05l2.906,0.006v2.101c-5.125,0.958-6.512,0.273-6.518,0.271l-0.057-0.038l-3.497-0.472l-1.838-0.989
	C2.029,16.334,1.95,16.108,2.028,15.93 M14.923,14.605h1.899v3.401h-1.899V14.605z M1.409,11.404
	c0.211-4.44,3.833-7.903,8.294-7.903c4.459,0,8.082,3.463,8.293,7.903H1.409z M8.987,2.736c-0.244-0.21-0.385-0.514-0.385-0.835
	c0-0.607,0.494-1.1,1.102-1.1c0.605,0,1.1,0.493,1.1,1.1c0,0.322-0.141,0.627-0.385,0.836c-0.237-0.018-0.473-0.036-0.715-0.036
	S9.224,2.719,8.987,2.736L8.987,2.736 M1.15,12.205h17.106c0.193,0,0.349,0.156,0.349,0.349c0,0.193-0.155,0.35-0.349,0.35H1.15
	c-0.193,0-0.35-0.157-0.35-0.35C0.8,12.361,0.957,12.205,1.15,12.205 M5.907,13.705c-0.024,0.12-0.027,0.244,0.002,0.372
	c0.127,0.566,0.805,1.089,1.403,1.451l-0.263,0.165l-0.441,0.008l-0.871-1.448c-0.178-0.296-0.463-0.481-0.776-0.548H5.907z"/>
<path style="fill:#626262;" d="M8.436,4.307c-2.209,0.37-4.133,1.692-5.278,3.628c-0.054,0.092-0.07,0.2-0.043,0.303
	c0.026,0.104,0.091,0.191,0.183,0.246C3.36,8.52,3.431,8.539,3.501,8.539c0.141,0,0.273-0.075,0.345-0.196
	c1.025-1.732,2.747-2.915,4.723-3.247C8.786,5.06,8.934,4.853,8.897,4.635C8.86,4.418,8.653,4.272,8.436,4.307"/>
</svg>
