<?xml version="1.0" encoding="iso-8859-1"?>
<!-- Generator: Adobe Illustrator 16.0.0, SVG Export Plug-In . SVG Version: 6.00 Build 0)  -->
<!DOCTYPE svg PUBLIC "-//W3C//DTD SVG 1.1//EN" "http://www.w3.org/Graphics/SVG/1.1/DTD/svg11.dtd">
<svg version="1.1" id="&#x5716;&#x5C64;_1" xmlns="http://www.w3.org/2000/svg" xmlns:xlink="http://www.w3.org/1999/xlink" x="0px"
	 y="0px" width="20px" height="17.661px" viewBox="0 0 20 17.661" style="enable-background:new 0 0 20 17.661;"
	 xml:space="preserve">
<path style="fill:#626262;" d="M17.559,8.786V5.185c0.84,0.169,1.475,0.912,1.475,1.801C19.034,7.875,18.399,8.618,17.559,8.786
	 M16.593,12.983c0,0.006,0,0.012-0.01,0.018c-0.013,0.007-0.021,0.003-0.026,0c-2.971-1.661-6.19-2.658-9.578-2.967V3.939
	c3.388-0.31,6.608-1.307,9.578-2.968c0.005-0.004,0.013-0.007,0.026,0c0.01,0.006,0.01,0.011,0.01,0.018V12.983z M8.205,16.689
	c-0.004,0.006-0.007,0.006-0.011,0.006H5.94c-0.005,0-0.01-0.004-0.012-0.009l-2.079-5.739H6.13l2.077,5.729
	C8.208,16.68,8.209,16.683,8.205,16.689 M0.966,8.363V5.611c0-0.159,0.129-0.287,0.287-0.287h0.621V8.65H1.253
	C1.095,8.65,0.966,8.521,0.966,8.363 M2.839,4.535c0-0.299,0.244-0.543,0.544-0.543h2.63v5.989c0,0-2.653-0.001-2.665-0.001
	C3.251,9.968,3.231,9.964,3.162,9.934c-0.19-0.085-0.323-0.275-0.323-0.496V4.535z M20,6.986c0-1.423-1.066-2.601-2.441-2.779V0.989
	c0-0.354-0.182-0.672-0.488-0.852c-0.306-0.18-0.675-0.183-0.986-0.009c-2.97,1.66-6.2,2.63-9.602,2.882
	c-0.026,0.002-3.1,0.016-3.1,0.016c-0.772,0-1.41,0.583-1.499,1.332H1.253C0.563,4.358,0,4.92,0,5.611v2.752
	c0,0.691,0.563,1.253,1.253,1.253h0.631c0.064,0.539,0.412,0.992,0.89,1.203l2.246,6.197c0.14,0.386,0.51,0.645,0.921,0.645h2.253
	c0.32,0,0.619-0.155,0.803-0.418c0.183-0.261,0.227-0.597,0.118-0.896l-1.929-5.321c3.144,0.326,6.134,1.273,8.899,2.819
	c0.153,0.086,0.319,0.128,0.485,0.128c0.173,0,0.345-0.046,0.501-0.137c0.306-0.18,0.488-0.498,0.488-0.852V9.764
	C18.934,9.587,20,8.409,20,6.986"/>
</svg>
